<svg xmlns="http://www.w3.org/2000/svg" xmlns:xlink="http://www.w3.org/1999/xlink" viewBox="0 0 15 3"><defs><path id="a" d="M649 122.5c0 .83-.75 1.5-1.67 1.5-.92 0-1.66-.67-1.66-1.5s.74-1.5 1.66-1.5c.92 0 1.67.67 1.67 1.5zm-5.83 0c0 .83-.75 1.5-1.67 1.5-.92 0-1.67-.67-1.67-1.5s.75-1.5 1.67-1.5c.92 0 1.67.67 1.67 1.5zm-5.84 0c0 .83-.74 1.5-1.66 1.5-.92 0-1.67-.67-1.67-1.5s.75-1.5 1.67-1.5c.92 0 1.66.67 1.66 1.5z"/></defs><use fill="#fff" xlink:href="#a" opacity=".9" transform="translate(-634 -121)"/></svg>